<svg width="52" height="52" viewBox="0 0 52 52" fill="none" xmlns="http://www.w3.org/2000/svg">
<circle cx="26" cy="26" r="17.28" fill="white" stroke="#222222" stroke-width="1.44"/>
<ellipse cx="26.0013" cy="25.9957" rx="11.0769" ry="11.0769" fill="#0055B8"/>
<path d="M30.7917 25.1667H26.8333V21.2083C26.8333 21.0938 26.7396 21 26.625 21H25.375C25.2604 21 25.1667 21.0938 25.1667 21.2083V25.1667H21.2083C21.0938 25.1667 21 25.2604 21 25.375V26.625C21 26.7396 21.0938 26.8333 21.2083 26.8333H25.1667V30.7917C25.1667 30.9063 25.2604 31 25.375 31H26.625C26.7396 31 26.8333 30.9063 26.8333 30.7917V26.8333H30.7917C30.9063 26.8333 31 26.7396 31 26.625V25.375C31 25.2604 30.9063 25.1667 30.7917 25.1667Z" fill="white"/>
</svg>
